<svg height='100px' width='100px'  fill="white" xmlns="http://www.w3.org/2000/svg" xmlns:xlink="http://www.w3.org/1999/xlink" version="1.1" x="0px" y="0px" viewBox="0 0 66 66" enable-background="new 0 0 66 66" xml:space="preserve"><g><path d="M60.2,35.6v-1.9C60.2,18.6,48,6.2,33,6.2S5.8,18.6,5.8,33.7v1.9C2.9,37.8,1,41.5,1,45.6c0,6.2,4.3,11.4,9.7,11.9   c0.2,1.2,1.2,2.2,2.5,2.2c2.6,0,1.6,0,2.4,0c2.7,0,3.3-1.4,3.3-2.5V34c0-1.4-1.1-2.5-2.5-2.5h-3.2c-1.3,0-2.3,1-2.5,2.2   c-1,0.1-2,0.4-2.9,0.8v-0.7C7.8,19.7,19.1,8.2,33,8.2s25.2,11.4,25.2,25.5v0.7c-0.9-0.4-1.9-0.7-2.9-0.8c-0.2-1.2-1.2-2.2-2.5-2.2   h-3.2c-1.4,0-2.5,1.1-2.5,2.5v23.2c0,1.4,1.1,2.5,2.5,2.5h3.2c1.3,0,2.3-1,2.5-2.2C60.7,57,65,51.9,65,45.6   C65,41.4,63.1,37.8,60.2,35.6z M12.7,34c0-0.3,0.2-0.5,0.5-0.5h3.2c0.3,0,0.5,0.2,0.5,0.5v23.2c0,0.3,0,0.5-1.3,0.5   c-0.8,0-1.8-0.1-2.5,0c-0.3,0-0.5-0.2-0.5-0.5C12.7,51.6,12.7,38.7,12.7,34z M10.7,55.6C6.4,55,3,50.8,3,45.6   c0-5.1,3.4-9.4,7.7-9.9V55.6z M53.3,57.2c0,0.3-0.2,0.5-0.5,0.5h-3.2c-0.3,0-0.5-0.2-0.5-0.5V34c0-0.3,0.2-0.5,0.5-0.5h3.2   c0.3,0,0.5,0.2,0.5,0.5C53.3,39.6,53.3,52.6,53.3,57.2z M55.3,55.6V35.7c4.3,0.6,7.7,4.8,7.7,9.9C63,50.8,59.6,55,55.3,55.6z"></path></g></svg>
