<svg height='100px' width='100px'  fill="white" xmlns="http://www.w3.org/2000/svg" xmlns:xlink="http://www.w3.org/1999/xlink" xml:space="preserve" version="1.0" style="shape-rendering:geometricPrecision;text-rendering:geometricPrecision;image-rendering:optimizeQuality;" viewBox="0 0 10000 10000" x="0px" y="0px" fill-rule="evenodd" clip-rule="evenodd"><g><path class="fil0" d="M8314 3229l-401 -74 0 3717c0,57 -46,104 -104,104 -865,-45 -1910,68 -2622,599 947,-447 2140,-301 3127,-75l0 -4271zm-6117 -1122c950,-13 2077,91 2803,772 726,-681 1853,-785 2802,-772 61,-2 111,42 111,104l0 733 517 95c52,6 93,50 93,104l0 4488c-10,67 -56,118 -129,100 -1104,-263 -2319,-431 -3340,152l-99 5c-1082,-591 -2183,-459 -3333,-190 -73,17 -126,-38 -128,-108l-16 -4473c0,-53 39,-96 89,-103l519 -74 0 -729c0,-62 51,-106 111,-104zm163 4867l-17 0 -7 0 -17 0 -7 0 -17 0 -7 0 -16 0 -8 0 -16 1 -8 0 -16 0 -8 0 -16 0 0 0 -9 1c-58,0 -105,-47 -105,-104l0 -3722 -400 57 16 4259c992,-222 2160,-345 3107,106 -706,-513 -1586,-613 -2449,-598zm-65 -4660l0 4452c904,-9 1842,69 2601,612l0 -4311c-659,-651 -1721,-757 -2601,-753zm5410 0c-881,-4 -1943,102 -2601,753l0 4311c662,-529 1786,-620 2601,-612l0 -3735 0 -717z"></path></g></svg>
