<svg height='100px' width='100px'  fill="white" xmlns="http://www.w3.org/2000/svg" xmlns:xlink="http://www.w3.org/1999/xlink" version="1.1" x="0px" y="0px" viewBox="0 0 100 100" style="enable-background:new 0 0 100 100;" xml:space="preserve"><style type="text/css">
	.st0{fill:none;stroke:#000000;stroke-width:2;stroke-linecap:round;stroke-linejoin:round;stroke-miterlimit:10;}
</style><path d="M32.3994141,90h35.2011719c2.9541016,0,5.3574219-2.4033203,5.3574219-5.3574219V15.3574219  C72.9580078,12.4033203,70.5546875,10,67.6005859,10H32.3994141c-2.9541016,0-5.3574219,2.4033203-5.3574219,5.3574219v69.2851562  C27.0419922,87.5966797,29.4453125,90,32.3994141,90z M70.9580078,73.6064453l-41.9160156-0.0009766V21.0849609h41.9160156  V73.6064453z M67.6005859,88H32.3994141c-1.8515625,0-3.3574219-1.5058594-3.3574219-3.3574219v-9.0371094l41.9160156,0.0009766  v9.0361328C70.9580078,86.4941406,69.4521484,88,67.6005859,88z M32.3994141,12h35.2011719  c1.8515625,0,3.3574219,1.5058594,3.3574219,3.3574219v3.7275391H29.0419922v-3.7275391  C29.0419922,13.5058594,30.5478516,12,32.3994141,12z"></path><path d="M50.0009766,77.859375c-0.0009766,0-0.0019531,0-0.0029297,0c-1.0986328,0-2.1318359,0.4277344-2.9091797,1.2050781  S45.8837891,80.875,45.8828125,81.9746094c0,0.0009766,0,0.0009766,0,0.0009766  c0,2.2695312,1.8466797,4.1162109,4.1162109,4.1162109c0.0009766,0,0.0019531,0,0.0029297,0  c1.0986328,0,2.1318359-0.4277344,2.9091797-1.2050781s1.2050781-1.8105469,1.2060547-2.9111328  C54.1171875,79.7060547,52.2705078,77.859375,50.0009766,77.859375z M51.4970703,83.4726562  c-0.3994141,0.3994141-0.9306641,0.6191406-1.4960938,0.6191406H50c-1.1669922,0-2.1171875-0.9492188-2.1171875-2.1162109  c0-0.5654297,0.2207031-1.0976562,0.6201172-1.4970703s0.9306641-0.6191406,1.4960938-0.6191406H50  c1.1669922,0,2.1171875,0.9492188,2.1171875,2.1152344C52.1171875,82.5410156,51.8964844,83.0732422,51.4970703,83.4726562z"></path></svg>
