<svg xmlns="http://www.w3.org/2000/svg" width="1679" height="181" viewBox="0 0 1679 181">
  <g opacity=".216">
    <g fill="#fff" fill-rule="evenodd" opacity=".571" transform="translate(-6)">
      <rect width="11.941" height="46.544" y="65.556"/>
      <rect width="11.941" height="65.556" x="19.788" y="55.722"/>
      <rect width="11.941" height="83.911" x="39.918" y="46.544"/>
      <rect width="11.941" height="112.1" x="59.706" y="32.778"/>
      <rect width="11.941" height="83.911" x="79.494" y="46.544"/>
      <rect width="11.941" height="121.278" x="99.624" y="28.189"/>
      <rect width="11.941" height="121.278" x="119.412" y="28.189"/>
      <rect width="11.941" height="149.467" x="139.2" y="13.767"/>
      <rect width="11.941" height="149.467" x="159.329" y="13.767"/>
      <rect width="11.941" height="112.1" x="179.118" y="32.778"/>
      <rect width="11.941" height="112.1" x="198.906" y="32.778"/>
      <rect width="11.941" height="93.089" x="219.035" y="41.956"/>
      <rect width="11.941" height="93.089" x="238.824" y="41.956"/>
      <rect width="11.941" height="121.278" x="258.612" y="28.189"/>
      <rect width="11.941" height="139.633" x="278.741" y="19.011"/>
      <rect width="11.941" height="139.633" x="298.529" y="19.011"/>
      <rect width="11.941" height="158.644" x="318.318" y="9.178"/>
      <rect width="11.941" height="177" x="338.447"/>
      <rect width="11.941" height="177" x="358.235"/>
      <rect width="11.941" height="112.1" x="378.024" y="32.778"/>
      <rect width="11.941" height="83.911" x="398.153" y="51.133"/>
      <rect width="11.941" height="83.911" x="417.941" y="51.133"/>
      <rect width="11.941" height="55.722" x="437.729" y="65.556"/>
      <rect width="11.941" height="88.5" x="457.859" y="51.133"/>
      <rect width="11.941" height="112.1" x="477.647" y="41.956"/>
      <rect width="11.941" height="112.1" x="497.435" y="37.367"/>
      <rect width="11.941" height="130.456" x="517.565" y="32.778"/>
      <rect width="11.941" height="130.456" x="537.353" y="32.778"/>
      <rect width="11.941" height="112.1" x="557.141" y="46.544"/>
      <rect width="11.941" height="112.1" x="577.271" y="37.367"/>
      <rect width="11.941" height="130.456" x="597.059" y="28.189"/>
      <rect width="11.941" height="46.544" x="619" y="65.556"/>
      <rect width="11.941" height="65.556" x="638.788" y="55.722"/>
      <rect width="11.941" height="83.911" x="658.918" y="46.544"/>
      <rect width="11.941" height="112.1" x="678.706" y="32.778"/>
      <rect width="11.941" height="83.911" x="698.494" y="46.544"/>
      <rect width="11.941" height="121.278" x="718.624" y="28.189"/>
      <rect width="11.941" height="121.278" x="738.412" y="28.189"/>
      <rect width="11.941" height="149.467" x="758.2" y="13.767"/>
      <rect width="11.941" height="149.467" x="778.329" y="13.767"/>
      <rect width="11.941" height="112.1" x="798.118" y="32.778"/>
      <rect width="11.941" height="112.1" x="817.906" y="32.778"/>
      <rect width="11.941" height="93.089" x="838.035" y="41.956"/>
      <rect width="11.941" height="93.089" x="857.824" y="41.956"/>
      <rect width="11.941" height="121.278" x="877.612" y="28.189"/>
      <rect width="11.941" height="139.633" x="897.741" y="19.011"/>
      <rect width="11.941" height="139.633" x="917.529" y="19.011"/>
      <rect width="11.941" height="158.644" x="937.318" y="9.178"/>
      <rect width="11.941" height="177" x="957.447"/>
      <rect width="11.941" height="177" x="977.235"/>
      <rect width="11.941" height="112.1" x="997.024" y="32.778"/>
      <rect width="11.941" height="83.911" x="1017.153" y="51.133"/>
      <rect width="11.941" height="83.911" x="1036.941" y="51.133"/>
      <rect width="11.941" height="55.722" x="1056.729" y="65.556"/>
      <rect width="11.941" height="88.5" x="1076.859" y="51.133"/>
      <rect width="11.941" height="112.1" x="1096.647" y="41.956"/>
      <rect width="11.941" height="112.1" x="1116.435" y="37.367"/>
      <rect width="11.941" height="130.456" x="1136.565" y="32.778"/>
      <rect width="11.941" height="130.456" x="1156.353" y="32.778"/>
      <rect width="11.941" height="112.1" x="1176.141" y="46.544"/>
      <rect width="11.941" height="112.1" x="1196.271" y="37.367"/>
      <rect width="11.941" height="130.456" x="1216.059" y="28.189"/>
      <rect width="11.941" height="46.544" x="1235" y="69.556"/>
      <rect width="11.941" height="65.556" x="1254.788" y="59.722"/>
      <rect width="11.941" height="83.911" x="1274.918" y="50.544"/>
      <rect width="11.941" height="112.1" x="1294.706" y="36.778"/>
      <rect width="11.941" height="83.911" x="1314.494" y="50.544"/>
      <rect width="11.941" height="121.278" x="1334.624" y="32.189"/>
      <rect width="11.941" height="121.278" x="1354.412" y="32.189"/>
      <rect width="11.941" height="149.467" x="1374.2" y="17.767"/>
      <rect width="11.941" height="149.467" x="1394.329" y="17.767"/>
      <rect width="11.941" height="112.1" x="1414.118" y="36.778"/>
      <rect width="11.941" height="112.1" x="1433.906" y="36.778"/>
      <rect width="11.941" height="93.089" x="1454.035" y="45.956"/>
      <rect width="11.941" height="93.089" x="1473.824" y="45.956"/>
      <rect width="11.941" height="121.278" x="1493.612" y="32.189"/>
      <rect width="11.941" height="139.633" x="1513.741" y="23.011"/>
      <rect width="11.941" height="139.633" x="1533.529" y="23.011"/>
      <rect width="11.941" height="158.644" x="1553.318" y="13.178"/>
      <rect width="11.941" height="177" x="1573.447" y="4"/>
      <rect width="11.941" height="177" x="1593.235" y="4"/>
      <rect width="11.941" height="112.1" x="1613.024" y="36.778"/>
      <rect width="11.941" height="83.911" x="1633.153" y="55.133"/>
      <rect width="11.941" height="83.911" x="1652.941" y="55.133"/>
      <rect width="11.941" height="55.722" x="1672.729" y="69.556"/>
    </g>
  </g>
</svg>

