<svg xmlns="http://www.w3.org/2000/svg" viewBox="21 22 57 56">
  <g fill="#fff">
    <path d="M39.74,43.791c-0.25,0-0.383-0.104-0.45-0.193c-0.105-0.138-0.125-0.328-0.06-0.563l0.047-0.17 c0.307-1.113,0.447-1.621,2.03-2.57c0.427-0.257,0.88-0.393,1.308-0.393c0.594,0,1.071,0.274,1.214,0.697 c0.072,0.213,0.151,0.778-0.67,1.405C42.218,42.722,40.53,43.791,39.74,43.791z M39.697,43.29c0.009,0,0.023,0.001,0.043,0.001 c0.5,0,1.898-0.756,3.116-1.685c0.392-0.299,0.579-0.615,0.5-0.847c-0.072-0.213-0.37-0.357-0.74-0.357 c-0.235,0-0.609,0.056-1.051,0.321c-1.411,0.846-1.51,1.206-1.805,2.274l-0.048,0.172c-0.018,0.063-0.02,0.102-0.02,0.121 c39.694,43.29,39.695,43.29,39.697,43.29z"></path>
    <path d="M36.451,46.058c-0.323,0-0.552-0.095-0.68-0.282c-0.143-0.209-0.139-0.497,0.01-0.879 c0.714-1.822,2.553-4.131,2.63-4.229c1.364-1.445,3.677-2.923,5.212-2.923c0.974,0,2.15,0.41,2.516,1.192 c0.144,0.309,0.214,0.798-0.27,1.376c-0.127,0.151-0.266,0.322-0.416,0.507c-1.084,1.339-2.724,3.362-4.654,3.935 c-0.478,0.142-1.03,0.341-1.564,0.533C38.14,45.684,37.103,46.058,36.451,46.058z M43.624,38.244 c-1.381,0-3.585,1.428-4.835,2.751c-0.005,0.007-1.856,2.333-2.542,4.083c-0.093,0.238-0.092,0.372-0.063,0.415 c0.021,0.031,0.103,0.064,0.267,0.064c0.564,0,1.607-0.376,2.616-0.74c0.541-0.195,1.099-0.396,1.591-0.542 c1.782-0.528,3.362-2.479,4.408-3.771c0.151-0.187,0.292-0.36,0.42-0.514c0.257-0.306,0.322-0.583,0.2-0.843 C45.454,38.65,44.529,38.244,43.624,38.244z"></path>
    <path d="M33.955,49.448c-0.4,0-0.7-0.125-0.894-0.37c-0.272-0.345-0.311-0.905-0.118-1.713l0.017-0.07 c0.858-3.587,1.213-5.071,4.389-7.686c3.733-3.074,5.75-4.061,8.633-4.221c1.113-0.064,1.922,0.395,2.292,1.265 c0.678,1.592-0.332,4.13-2.573,6.465c-3.466,3.611-4.183,3.817-6.097,4.366c-0.19,0.055-0.393,0.113-0.611,0.178 c-0.557,0.167-1.219,0.459-1.92,0.769C35.939,48.931,34.766,49.448,33.955,49.448z M46.175,35.883 c-0.054,0-0.109,0.001-0.165,0.004c-2.757,0.153-4.707,1.113-8.343,4.107c-3.046,2.508-3.366,3.845-4.22,7.417l-0.017,0.07 c-0.191,0.797-0.092,1.141,0.024,1.288c0.095,0.121,0.259,0.18,0.501,0.18c0.706,0,1.83-0.496,2.917-0.975 c0.715-0.316,1.391-0.614,1.978-0.79c0.221-0.066,0.425-0.125,0.617-0.18c1.82-0.522,2.501-0.718,5.875-4.232 c2.555-2.661,2.929-4.853,2.474-5.922C47.545,36.217,46.979,35.883,46.175,35.883z"></path>
    <path d="M30.217,54.351c-0.269,0-0.485-0.091-0.644-0.269c-0.299-0.336-0.375-0.969-0.25-2.054 c0.511-4.379,2.961-9.021,5.164-11.679c1.995-2.408,4.472-4.874,9.049-6.596c2.195-0.826,4.673-1.67,6.41-1.67 c0.955,0,1.622,0.262,1.985,0.778c0.437,0.62,0.422,1.554-0.046,2.856c-2.039,5.676-6.473,12.475-12.808,14.536 c-2.432,0.791-4.476,1.959-5.968,2.812C31.806,53.812,30.863,54.351,30.217,54.351z M49.946,32.583 c-1.657,0-4.081,0.828-6.234,1.638c-4.467,1.681-6.888,4.092-8.84,6.447c-2.155,2.601-4.553,7.14-5.051,11.418 c-0.104,0.892-0.062,1.451,0.126,1.662c0.042,0.048,0.11,0.102,0.27,0.102c0.513,0,1.454-0.538,2.646-1.219 c1.511-0.864,3.581-2.047,6.062-2.854c6.169-2.008,10.584-8.92,12.491-14.229c0.402-1.122,0.439-1.929,0.107-2.4 C51.259,32.773,50.729,32.583,49.946,32.583z"></path>
    <path d="M21.784,65.239c-0.05,0-0.101-0.015-0.145-0.046c-0.113-0.08-0.139-0.236-0.06-0.349 c2.768-3.909,6.265-6.938,10.395-9.003c2.194-1.097,4.022-1.915,5.636-2.637c3.083-1.379,5.312-2.375,7.516-4.199 c3.437-2.846,7.343-7.639,8.321-11.932c0.282-1.237,0.472-2.236,0.639-3.117c0.433-2.288,0.671-3.548,1.843-5.072 c0.605-0.787,1.5-2.161,2.447-3.616c0.893-1.37,1.814-2.787,2.608-3.891c0.081-0.112,0.236-0.137,0.35-0.057 c0.111,0.081,0.137,0.237,0.057,0.349c-0.787,1.094-1.707,2.506-2.596,3.871c-0.952,1.463-1.853,2.846-2.47,3.648 c-1.1,1.429-1.33,2.648-1.748,4.86c-0.168,0.886-0.357,1.889-0.642,3.135c-1.074,4.709-5.246,9.518-8.491,12.205 c-2.257,1.868-4.511,2.876-7.631,4.271c-1.608,0.719-3.432,1.534-5.616,2.627c-4.056,2.028-7.491,5.004-10.21,8.845 C21.939,65.202,21.862,65.239,21.784,65.239z"></path>
    <path d="M21.795,62.133c-0.053,0-0.105-0.017-0.151-0.051c-0.11-0.083-0.132-0.24-0.048-0.35 c0.385-0.511,0.731-0.964,1.047-1.379c1.319-1.729,2.115-2.774,3.209-4.501c1.116-1.762,1.829-4.345,2.519-6.842 c0.523-1.894,1.017-3.683,1.657-4.997c1.636-3.358,4.03-7.555,8.048-10.234c2.107-1.404,4.171-1.801,6.167-2.184 c1.979-0.38,3.849-0.739,5.776-2.007c2.499-1.644,4.713-4.419,6.856-7.103c0.288-0.361,0.572-0.717,0.854-1.066 c0.086-0.108,0.243-0.124,0.352-0.037c0.107,0.086,0.124,0.244,0.037,0.352c-0.281,0.348-0.565,0.704-0.853,1.064 c-2.065,2.587-4.407,5.521-6.972,7.208c-2.01,1.322-4.016,1.708-5.957,2.081c-1.947,0.374-3.961,0.761-5.984,2.109 c-3.918,2.612-6.267,6.736-7.876,10.037c-0.62,1.272-1.108,3.04-1.625,4.911c-0.699,2.533-1.423,5.151-2.578,6.977 c-1.106,1.745-1.907,2.796-3.234,4.537c-0.316,0.414-0.661,0.867-1.046,1.376C21.945,62.099,21.871,62.133,21.795,62.133z"></path>
    <path d="M21.831,70.25c-0.046,0-0.092-0.013-0.133-0.038c-0.117-0.074-0.152-0.229-0.078-0.345 c2.305-3.666,5.742-8.469,9.025-10.531c1.666-1.046,4.481-2.282,7.462-3.592c5.163-2.268,11.015-4.838,12.902-7.244 c3.4-4.341,5.347-13.385,6.025-17.072c0.72-3.906,3.963-7.268,7.04-10.041c0.102-0.094,0.261-0.085,0.353,0.018 c0.093,0.103,0.084,0.261-0.019,0.353c-3.015,2.717-6.189,6.001-6.882,9.76c-0.852,4.625-2.779,13.02-6.124,17.29 c-1.964,2.505-7.877,5.103-13.094,7.394c-2.964,1.302-5.763,2.531-7.398,3.558c-3.203,2.012-6.59,6.752-8.868,10.373 C21.995,70.209,21.914,70.25,21.831,70.25z"></path>
    <path d="M21.831,74.397c-0.049,0-0.099-0.015-0.142-0.045c-0.114-0.078-0.142-0.233-0.063-0.348 c3.753-5.42,7.362-10.451,10.266-12.462c1.527-1.058,4.06-2.093,6.993-3.293c4.941-2.021,10.542-4.311,12.913-7.397 c3.67-4.776,5.315-11.51,6.81-18.571c0.704-3.333,3.31-6.902,7.964-10.911c0.104-0.089,0.263-0.078,0.353,0.026   s0.078,0.262-0.026,0.353c-4.568,3.935-7.12,7.414-7.802,10.636c-1.506,7.12-3.168,13.913-6.901,18.772 c-2.454,3.193-8.121,5.511-13.12,7.556c-2.785,1.14-5.416,2.215-6.898,3.24c-2.835,1.964-6.414,6.956-10.14,12.337 C21.988,74.36,21.91,74.397,21.831,74.397z"></path>
    <path d="M21.814,58.018c-0.053,0-0.106-0.017-0.151-0.051c-0.11-0.084-0.131-0.24-0.047-0.351l0.26-0.342 c2.5-3.283,3.171-4.165,4.366-8.272c0.149-0.511,0.29-1.004,0.427-1.481c1.416-4.948,2.352-8.217,6.215-12.65 c4.33-4.967,10.465-5.656,13.084-5.951c2-0.225,6.864-5.54,8.695-7.542c0.095-0.101,0.253-0.107,0.354-0.016 c0.102,0.093,0.108,0.251,0.016,0.354c-3.177,3.471-7.07,7.483-9.008,7.701c-2.562,0.288-8.562,0.962-12.763,5.782 c-3.79,4.35-4.713,7.576-6.111,12.459c-0.137,0.478-0.278,0.972-0.427,1.483c-1.221,4.196-1.969,5.178-4.449,8.435l-0.261,0.342 C21.964,57.983,21.89,58.018,21.814,58.018z"></path>
    <path d="M21.915,78.49c-0.052,0-0.104-0.016-0.148-0.049c-0.111-0.081-0.135-0.238-0.054-0.35 c1.075-1.462,2.113-2.988,3.117-4.465c2.792-4.106,5.428-7.985,8.53-10.095c2.125-1.445,4.87-2.452,7.776-3.519 c4.168-1.528,8.479-3.109,10.658-6.062c0.327-0.442,0.645-0.868,0.953-1.281c3.209-4.301,5.329-7.143,6.275-13.482 c0.803-5.378,6.073-13.021,10.863-17.79c0.098-0.097,0.257-0.097,0.354,0.001c0.098,0.098,0.098,0.256,0,0.354 c-4.732,4.711-9.936,12.238-10.723,17.509c-0.965,6.464-3.114,9.345-6.369,13.707c-0.308,0.412-0.625,0.837-0.951,1.279 c-2.269,3.073-6.651,4.681-10.888,6.234c-2.876,1.056-5.594,2.052-7.667,3.463c-3.023,2.056-5.634,5.896-8.398,9.961 c-1.006,1.48-2.047,3.012-3.127,4.481C22.067,78.455,21.992,78.49,21.915,78.49z"></path>
    <path d="M47.63,78.76c-0.063,0-0.127-0.024-0.176-0.072c-0.098-0.097-0.099-0.255-0.002-0.354 c1.61-1.632,7.828-7.217,9.515-6.599c0.153,0.055,0.415,0.212,0.453,0.648c0.153,1.764-0.522,4.324-1.646,6.226 c-0.069,0.118-0.224,0.159-0.342,0.088c-0.119-0.069-0.158-0.223-0.088-0.342c1.074-1.82,1.723-4.258,1.577-5.929 c-0.016-0.183-0.089-0.209-0.124-0.222c-1.06-0.372-6.194,3.648-8.99,6.48C47.759,78.735,47.694,78.76,47.63,78.76z"></path>
    <path d="M53.293,78.729c-0.036,0-0.072-0.008-0.107-0.024c-0.125-0.059-0.178-0.208-0.118-0.333 c0.414-0.871,0.418-1.35,0.283-1.506c-0.111-0.131-0.393-0.064-0.508-0.03c-0.799,0.24-1.334,0.599-2.724,1.828 c-0.104,0.091-0.261,0.081-0.353-0.021c-0.091-0.104-0.082-0.262,0.022-0.354c1.337-1.183,1.978-1.652,2.911-1.932 c0.605-0.179,0.906,0.037,1.032,0.183c0.32,0.374,0.247,1.081-0.212,2.047C53.476,78.676,53.387,78.729,53.293,78.729z"></path>
    <path d="M45.653,78.748c-0.062,0-0.124-0.022-0.172-0.068c-0.1-0.096-0.104-0.254-0.009-0.354l0.499-0.525 c3.205-3.376,5.973-6.291,8.868-7.484c0.766-0.314,1.59-0.603,2.388-0.88c3.26-1.135,6.631-2.31,8.099-5.897 c0.771-1.886,1.744-5.49,2.774-9.307c1.503-5.566,3.207-11.876,4.881-15.223c1.354-2.708,3.541-6.381,5.502-9.615 c0.071-0.118,0.225-0.154,0.344-0.084c0.118,0.072,0.155,0.226,0.084,0.343c-1.956,3.227-4.137,6.887-5.482,9.58 c-1.651,3.302-3.349,9.586-4.845,15.13c-1.035,3.831-2.012,7.451-2.795,9.365c-1.554,3.797-5.032,5.009-8.397,6.181 c-0.827,0.288-1.609,0.56-2.36,0.87c-2.797,1.152-5.531,4.031-8.697,7.365l-0.499,0.525 C45.785,78.722,45.719,78.748,45.653,78.748z"></path>
    <path d="M42.231,78.691c-0.062,0-0.125-0.023-0.173-0.069c-0.1-0.096-0.103-0.254-0.007-0.354 c4.835-5.035,7.958-7.825,9.831-8.781c1.041-0.532,2.25-0.854,3.529-1.193c2.02-0.536,4.107-1.091,5.682-2.539 c2.605-2.398,4.772-8.939,5.684-14.002c0.924-5.129,5.213-17.937,9.169-22.641c0.887-1.054,1.744-2.135,2.551-3.214 c0.083-0.111,0.241-0.132,0.35-0.051c0.11,0.083,0.134,0.239,0.051,0.35c-0.812,1.087-1.676,2.176-2.568,3.237 c-3.903,4.641-8.145,17.323-9.06,22.406c-0.925,5.143-3.146,11.806-5.838,14.281c-1.664,1.532-3.813,2.104-5.892,2.655 c-1.253,0.333-2.436,0.647-3.431,1.155c-1.795,0.917-4.967,3.757-9.697,8.682C42.363,78.666,42.297,78.691,42.231,78.691z"></path>
    <path d="M25.244,78.724c-0.047,0-0.094-0.013-0.137-0.041c-0.115-0.075-0.148-0.229-0.073-0.346 c2.706-4.152,7.704-11.355,10.769-12.936c1.015-0.522,2.232-1.07,3.521-1.651c3.44-1.55,7.721-3.479,11.813-6.498 c5.322-3.927,6.88-8.298,8.386-12.526l0.245-0.687c0.375-1.043,0.725-2.101,1.095-3.221c1.158-3.507,2.356-7.134,4.328-10.111 c1.491-2.253,4.638-6.086,7.651-9.322c0.093-0.101,0.252-0.107,0.353-0.013c0.102,0.094,0.107,0.252,0.013,0.354 c-2.996,3.218-6.122,7.025-7.601,9.258c-1.934,2.92-3.121,6.515-4.27,9.991c-0.354,1.074-0.722,2.184-1.099,3.233l-0.245,0.686 c-1.46,4.098-3.114,8.743-8.56,12.761c-4.135,3.052-8.443,4.992-11.905,6.552c-1.283,0.578-2.495,1.124-3.498,1.641 C32.959,67.431,27.61,75.3,25.454,78.61C25.406,78.684,25.326,78.724,25.244,78.724z"></path>
    <path d="M38.059,78.762c-0.066,0-0.132-0.026-0.182-0.078c-0.095-0.101-0.09-0.259,0.01-0.354l0.235-0.223 c4.298-4.073,9.647-9.143,11.732-9.991c1.239-0.505,2.925-0.967,4.557-1.414c2.029-0.557,4.129-1.133,4.924-1.7 c1.333-0.952,4.814-7.428,5.346-10.938c0.49-3.239,1.437-8.003,3.157-12.31c1.652-4.13,4.94-11.664,6.73-14.297 c0.693-1.019,2.017-2.705,3.936-5.011c0.09-0.105,0.247-0.119,0.353-0.032c0.105,0.088,0.12,0.246,0.032,0.353 c-1.908,2.293-3.223,3.966-3.906,4.972c-1.769,2.6-5.036,10.09-6.68,14.201c-1.704,4.262-2.642,8.986-3.128,12.198 c-0.523,3.457-3.989,10.156-5.549,11.271c-0.868,0.62-2.915,1.182-5.083,1.775c-1.617,0.443-3.289,0.902-4.5,1.396 c-1.998,0.813-7.309,5.847-11.577,9.892l-0.235,0.223C38.182,78.739,38.121,78.762,38.059,78.762z"></path>
    <path d="M28.951,78.725c-0.049,0-0.099-0.015-0.143-0.045c-0.113-0.078-0.142-0.234-0.063-0.348 c3.915-5.649,8.3-9.76,12.679-11.885l1.177-0.569c4.24-2.048,8.245-3.982,11.58-6.937c3.271-2.897,5.818-7.903,7.57-14.879 c0.194-0.776,0.368-1.484,0.528-2.137c1.124-4.575,1.589-6.468,3.91-9.737c1.593-2.243,5.467-7.393,8.729-10.829 c0.096-0.1,0.254-0.104,0.354-0.009c0.101,0.095,0.104,0.253,0.01,0.354c-3.243,3.415-7.099,8.54-8.684,10.773 c-2.267,3.191-2.693,4.927-3.832,9.567c-0.161,0.653-0.335,1.362-0.53,2.14c-1.776,7.075-4.374,12.167-7.723,15.132 c-3.388,3-7.422,4.948-11.694,7.012l-1.176,0.568c-3,1.456-7.602,4.672-12.487,11.721C29.108,78.688,29.03,78.725,28.951,78.725z   "></path>
    <path d="M33.586,78.715c-0.053,0-0.105-0.017-0.15-0.05c-0.11-0.083-0.132-0.24-0.049-0.351 c1.686-2.239,5.067-6.349,8.78-8.711c4.697-2.989,7.018-4.019,11.414-5.886c4.139-1.757,5.957-4.767,7.866-9.707 c1.131-2.927,2.006-6.396,2.851-9.75c0.486-1.927,0.945-3.747,1.438-5.42c1.267-4.289,5.666-11.149,11.208-17.478 c0.092-0.104,0.249-0.114,0.354-0.023c0.104,0.091,0.114,0.249,0.023,0.353c-6.253,7.14-10.083,13.829-11.104,17.29 c-0.492,1.664-0.949,3.479-1.434,5.401c-0.85,3.369-1.728,6.853-2.869,9.807c-1.652,4.276-3.405,7.979-8.138,9.988 c-4.37,1.855-6.677,2.879-11.34,5.847c-2.703,1.719-5.774,4.77-8.649,8.59C33.736,78.681,33.662,78.715,33.586,78.715z"></path>
    <path d="M58.052,78.743c-0.032,0-0.064-0.006-0.096-0.019c-0.127-0.053-0.188-0.199-0.136-0.327 c0.39-0.941,0.616-1.813,0.835-2.656c0.356-1.373,0.693-2.67,1.674-3.957c0.933-1.224,2.14-1.976,3.307-2.701 c1.51-0.94,2.937-1.828,3.68-3.657c0.502-1.235,1.145-3.578,1.889-6.29c1.277-4.653,2.867-10.445,4.717-14.309 c0.916-1.914,1.707-3.827,2.472-5.678c0.702-1.701,1.366-3.307,2.078-4.798c0.061-0.125,0.212-0.176,0.333-0.118 c0.125,0.06,0.178,0.208,0.118,0.333c-0.706,1.479-1.367,3.079-2.067,4.773c-0.768,1.856-1.561,3.776-2.482,5.703 c-1.83,3.824-3.413,9.591-4.686,14.226c-0.749,2.727-1.396,5.082-1.908,6.345c-0.804,1.979-2.367,2.953-3.879,3.894 c-1.129,0.703-2.296,1.43-3.172,2.58c-0.921,1.207-1.23,2.399-1.589,3.78c-0.223,0.859-0.454,1.748-0.855,2.722 C58.243,78.685,58.149,78.743,58.052,78.743z"></path>
    <path d="M59.778,78.731c-0.023,0-0.047-0.003-0.07-0.01c-0.132-0.039-0.208-0.178-0.17-0.311 c0.152-0.524,0.268-0.99,0.372-1.415c0.437-1.772,0.699-2.843,2.673-4.243c1.124-0.797,2.221-1.304,3.188-1.75 c1.857-0.857,3.325-1.534,4.051-3.78c0.312-0.965,0.709-2.73,1.168-4.775c1.23-5.485,3.09-13.776,5.779-17.655 c0.609-0.88,1.184-1.821,1.706-2.798c0.065-0.123,0.216-0.168,0.339-0.103c0.121,0.065,0.167,0.216,0.103,0.338 c-0.532,0.994-1.116,1.952-1.737,2.848c-2.633,3.799-4.479,12.032-5.702,17.479c-0.48,2.142-0.859,3.833-1.179,4.82 c-0.794,2.454-2.427,3.207-4.318,4.08c-0.947,0.438-2.022,0.934-3.108,1.704c-1.821,1.293-2.054,2.238-2.477,3.955 c-0.105,0.43-0.223,0.903-0.377,1.436C59.986,78.66,59.887,78.731,59.778,78.731z"></path>
    <path d="M62.644,78.735c-0.022,0-0.046-0.003-0.069-0.01c-0.133-0.038-0.209-0.177-0.171-0.31 c0.798-2.773,1.712-3.976,4.075-5.36c3.291-1.931,5.207-4.04,5.855-6.449c0.2-0.746,0.431-2.02,0.723-3.631 c0.742-4.097,1.863-10.287,3.695-13.891c0.543-1.069,1.104-2.091,1.713-3.126c0.07-0.12,0.223-0.158,0.343-0.088 c0.119,0.07,0.158,0.223,0.089,0.342c-0.604,1.025-1.16,2.039-1.699,3.099c-1.799,3.538-2.912,9.686-3.648,13.753 c-0.294,1.623-0.526,2.906-0.732,3.672c-0.685,2.543-2.675,4.751-6.085,6.751c-2.229,1.306-3.093,2.442-3.848,5.067 C62.853,78.664,62.752,78.735,62.644,78.735z"></path>
    <path d="M65.03,78.731c-0.038,0-0.077-0.009-0.113-0.027c-0.123-0.062-0.172-0.213-0.109-0.336 c0.709-1.393,1.767-2.21,3.137-3.008c2.589-1.51,5.371-3.557,6.38-7.287c0.396-1.464,0.673-3.521,0.967-5.699 c0.473-3.508,1.009-7.482,2.193-9.852c0.284-0.569,0.62-1.178,0.997-1.807c0.071-0.119,0.223-0.159,0.344-0.086 c0.118,0.071,0.156,0.225,0.086,0.343c-0.371,0.619-0.701,1.216-0.979,1.774c-1.147,2.294-1.678,6.226-2.146,9.695 c-0.296,2.194-0.575,4.267-0.979,5.763c-1.056,3.904-3.934,6.026-6.61,7.588c-1.571,0.916-2.369,1.676-2.943,2.803 C65.209,78.682,65.121,78.731,65.03,78.731z"></path>
    <path d="M68.47,78.699c-0.068,0-0.137-0.028-0.187-0.084c-0.092-0.103-0.083-0.261,0.021-0.353 c0.421-0.376,0.979-0.827,1.688-1.398l0.646-0.522c3.791-3.071,5.36-4.342,5.564-8.008c0.121-2.184,1.09-6.982,2.205-10.925 c0.037-0.132,0.17-0.214,0.309-0.172c0.133,0.037,0.21,0.176,0.172,0.309c-1.106,3.912-2.066,8.663-2.186,10.815 c-0.217,3.888-1.951,5.292-5.75,8.369l-0.646,0.522c-0.701,0.567-1.256,1.015-1.669,1.383 C68.589,78.679,68.529,78.699,68.47,78.699z"></path>
    <path d="M72.524,78.738c-0.053,0-0.105-0.017-0.15-0.05c-0.11-0.083-0.133-0.24-0.05-0.351 c0.688-0.913,1.439-1.631,2.117-2.019c1.582-0.906,3.654-3.786,3.855-6.003c0.016-0.17,0.032-0.377,0.051-0.614 c0.01-0.137,0.104-0.254,0.269-0.229c0.138,0.011,0.24,0.131,0.229,0.269c-0.019,0.239-0.035,0.448-0.051,0.62 c-0.218,2.4-2.386,5.406-4.105,6.392c-0.62,0.355-1.317,1.025-1.965,1.886C72.675,78.704,72.6,78.738,72.524,78.738z"></path>
    <path d="M75.89,78.791c-0.05,0-0.1-0.015-0.144-0.045c-0.113-0.079-0.141-0.235-0.062-0.349 c1.154-1.65,2.104-2.409,2.804-2.886c0.113-0.077,0.269-0.048,0.348,0.066c0.077,0.114,0.048,0.27-0.066,0.348 c-0.663,0.452-1.567,1.174-2.675,2.759C76.046,78.754,75.969,78.791,75.89,78.791z"></path>
    <path d="M21.903,53.176c-0.042,0-0.085-0.011-0.124-0.033c-0.12-0.068-0.162-0.221-0.093-0.341 c1.94-3.392,2.87-6.159,3.854-9.089c0.258-0.769,0.522-1.554,0.81-2.371c1.908-5.404,5.419-11.338,8.963-12.412 c1.216-0.369,2.634-0.542,4.135-0.727c2.812-0.345,5.72-0.703,7.72-2.368c1.663-1.387,3.52-3.045,4.968-4.436 c0.098-0.095,0.256-0.092,0.354,0.007c0.096,0.1,0.092,0.258-0.008,0.354c-1.455,1.398-3.322,3.065-4.993,4.459 c-2.113,1.76-5.095,2.126-7.979,2.48c-1.479,0.182-2.876,0.354-4.05,0.709c-3.377,1.023-6.771,6.814-8.637,12.1 c-0.288,0.814-0.55,1.597-0.808,2.364c-0.992,2.954-1.93,5.744-3.895,9.178C22.074,53.131,21.99,53.176,21.903,53.176z"></path>
    <path d="M21.836,47.248c-0.037,0-0.074-0.008-0.109-0.025c-0.124-0.06-0.176-0.209-0.116-0.334 c1.465-3.03,2.61-5.95,3.62-8.527c0.396-1.01,0.768-1.958,1.125-2.825l0.095-0.23c1.828-4.44,3.271-7.947,7.12-8.482l0.915-0.125 c3.647-0.495,8.643-1.172,10.907-2.966c0.691-0.547,1.503-1.313,2.482-2.341c0.097-0.1,0.254-0.104,0.354-0.009 c0.1,0.095,0.104,0.253,0.009,0.354c-0.995,1.045-1.824,1.826-2.534,2.388c-2.372,1.879-7.445,2.567-11.15,3.07l-0.914,0.125 c-3.564,0.496-4.891,3.718-6.727,8.177l-0.095,0.23c-0.355,0.864-0.726,1.809-1.121,2.817c-1.014,2.585-2.163,5.515-3.636,8.562 C22.018,47.196,21.929,47.248,21.836,47.248z"></path>
    <path d="M21.846,41.623c-0.033,0-0.067-0.007-0.1-0.021c-0.127-0.055-0.185-0.203-0.13-0.329 c1.208-2.778,2.288-5.691,3.24-8.262c0.576-1.557,1.074-2.901,1.5-3.938c1.767-4.304,5.859-4.77,9.556-4.869 c1.861-0.05,4.362-0.966,6.861-2.512c0.116-0.075,0.272-0.036,0.344,0.081c0.073,0.117,0.037,0.271-0.081,0.344 c-2.572,1.592-5.163,2.535-7.11,2.587c-3.702,0.099-7.455,0.533-9.106,4.559c-0.422,1.029-0.919,2.37-1.494,3.922 c-0.907,2.449-2.036,5.497-3.25,8.287C22.034,41.567,21.942,41.623,21.846,41.623z"></path>
    <path d="M21.965,32.967c-0.037,0-0.074-0.008-0.109-0.025c-0.125-0.061-0.176-0.21-0.116-0.334 c0.868-1.791,1.536-3.637,1.986-5.488c1.011-4.156,3.734-4.599,7.772-4.8c1.266-0.064,2.726-0.366,4.342-0.896 c0.13-0.045,0.272,0.028,0.315,0.159c0.043,0.131-0.028,0.272-0.159,0.315c-1.658,0.545-3.163,0.854-4.473,0.92 c-4.453,0.222-6.453,0.885-7.312,4.419c-0.458,1.885-1.139,3.765-2.022,5.588C22.146,32.915,22.058,32.967,21.965,32.967z"></path>
    <path d="M21.952,28.844c-0.033,0-0.066-0.006-0.098-0.02c-0.127-0.054-0.187-0.201-0.132-0.328 c0.366-0.863,0.639-1.853,0.957-3.057c0.497-1.878,1.417-3.198,2.812-4.034c0.118-0.07,0.272-0.032,0.343,0.086 c0.071,0.118,0.033,0.272-0.086,0.343c-1.277,0.766-2.123,1.987-2.585,3.733c-0.324,1.224-0.602,2.231-0.98,3.125 C22.142,28.787,22.049,28.844,21.952,28.844z"></path>
  </g>
</svg>
