<svg id="Layer_1" data-name="Layer 1" xmlns="http://www.w3.org/2000/svg" viewBox="0 0 87.03 87.03"><defs><style>.cls-1{fill:#6d3142;}</style></defs><title>Friends Library Mark - </title><path class="cls-1" d="M43.52,0,0,43.52,43.52,87,87,43.52ZM59.85,54.66a2.05,2.05,0,0,0,1.2,1.14,7.76,7.76,0,0,0,2.83.4v2H49.16v-2a7.72,7.72,0,0,0,2.8-.38,1.94,1.94,0,0,0,1.15-1.11,5.82,5.82,0,0,0,.27-2V34.34L42.3,58.19H41L29.75,34.34V51.8a16.19,16.19,0,0,0,.1,2.12,2.53,2.53,0,0,0,.5,1.26,2.35,2.35,0,0,0,1.26.77,9.36,9.36,0,0,0,2.4.25v2H23.15v-2a8.8,8.8,0,0,0,2.41-.26,2.45,2.45,0,0,0,1.25-.78,2.56,2.56,0,0,0,.48-1.25c.05-.48.08-1.18.08-2.11V35.18a13,13,0,0,0-.19-2.68,1.82,1.82,0,0,0-1.07-1.24,7.24,7.24,0,0,0-3-.43v-2H33.88l9.74,20.71,9.76-20.71h10.5v2c-1.8,0-3,.27-3.5.79a3.75,3.75,0,0,0-.79,2.68V52.73A6,6,0,0,0,59.85,54.66Z"/></svg>