<svg id="Layer_1" data-name="Layer 1" xmlns="http://www.w3.org/2000/svg" viewBox="0 0 87.03 87.03"><defs><style>.cls-1{fill:#9d9d80;}</style></defs><title>Friends Library Mark - </title><path class="cls-1" d="M43.52,0,0,43.52,43.52,87,87,43.52Zm8.84,56.61a17.71,17.71,0,0,1-8.82,2.11,18.71,18.71,0,0,1-7.32-1.34,14.39,14.39,0,0,1-5.16-3.6,15,15,0,0,1-3-4.93A15.66,15.66,0,0,1,29,36.06a14.11,14.11,0,0,1,5.54-5.62,17.47,17.47,0,0,1,8.85-2.13,18.7,18.7,0,0,1,8,1.54,13.79,13.79,0,0,1,5.13,3.87,15.3,15.3,0,0,1,2.63,4.9,16.82,16.82,0,0,1,.79,4.88A15.43,15.43,0,0,1,58,51,14.26,14.26,0,0,1,52.36,56.61Z"/><path class="cls-1" d="M51,34.75a7.8,7.8,0,0,0-2.9-2.83,9,9,0,0,0-4.54-1.05,8.43,8.43,0,0,0-5.81,1.85,9.17,9.17,0,0,0-2.84,4.63,23.26,23.26,0,0,0-.74,6.07,31.13,31.13,0,0,0,.23,3.78,14.19,14.19,0,0,0,1.15,4,8.43,8.43,0,0,0,2.9,3.49,8.71,8.71,0,0,0,5.15,1.41,8.36,8.36,0,0,0,5.1-1.46,8.62,8.62,0,0,0,2.85-3.57,14.68,14.68,0,0,0,1.13-4,31.5,31.5,0,0,0,.23-3.65,25,25,0,0,0-.43-4.68A12.15,12.15,0,0,0,51,34.75Z"/></svg>