<svg id="Layer_1" data-name="Layer 1" xmlns="http://www.w3.org/2000/svg" viewBox="0 0 87.03 87.03"><defs><style>.cls-1{fill:#6d3142;}</style></defs><title>Friends Library Mark - </title><path class="cls-1" d="M43.52,0,0,43.52,43.52,87,87,43.52Zm8.1,55.57a9,9,0,0,1-3,2.27,9.25,9.25,0,0,1-4.15.88,11.34,11.34,0,0,1-4.64-1,10.23,10.23,0,0,1-3.91-3,11.87,11.87,0,0,0-.89,3h-2v-10h2a19.36,19.36,0,0,0,1.5,4.07,9.52,9.52,0,0,0,2.69,3.28,6.68,6.68,0,0,0,4.28,1.38,5,5,0,0,0,3.53-1.22,3.92,3.92,0,0,0,1.33-3.05A3.79,3.79,0,0,0,48,50.23a4.42,4.42,0,0,0-1.19-1.39,13.9,13.9,0,0,0-2.13-1.32c-.9-.47-1.93-1-3.08-1.48A25,25,0,0,1,37.2,43.5,12.15,12.15,0,0,1,34.61,41a7.85,7.85,0,0,1-1.21-2.29,7.13,7.13,0,0,1-.34-2.18,8,8,0,0,1,1.06-3.89,8.33,8.33,0,0,1,3.11-3.13A9,9,0,0,1,42,28.31a8.74,8.74,0,0,1,3.91.92,10.28,10.28,0,0,1,3.23,2.52,12.62,12.62,0,0,0,.71-2.55h2v8.18h-2q-2.16-6.69-7.53-6.69a4.63,4.63,0,0,0-3.13,1A3.37,3.37,0,0,0,38,34.37a3.51,3.51,0,0,0,.73,2.22,6.21,6.21,0,0,0,1.94,1.61c.8.45,2.09,1.09,3.88,1.93a53.57,53.57,0,0,1,5.08,2.66,11,11,0,0,1,3.09,2.83A6.75,6.75,0,0,1,54,49.76a8.1,8.1,0,0,1-.59,2.89A10.16,10.16,0,0,1,51.62,55.57Z"/></svg>