<svg id="Layer_1" data-name="Layer 1" xmlns="http://www.w3.org/2000/svg" viewBox="0 0 87.03 87.03"><defs><style>.cls-1{fill:#fff;}</style></defs><title>Friends Library Mark - </title><path class="cls-1" d="M43.52,0,0,43.52,43.52,87,87,43.52ZM56,37.17a8.7,8.7,0,0,0-1.2-4,3.85,3.85,0,0,0-2-1.6,9,9,0,0,0-2.45-.31H46.61V52.73a6,6,0,0,0,.26,2,2,2,0,0,0,1.21,1.1,7.74,7.74,0,0,0,2.79.39v2H36.16v-2q2.7,0,3.48-.78a3.74,3.74,0,0,0,.78-2.69V31.24H37.3a13,13,0,0,0-3,.3,3.7,3.7,0,0,0-2.13,1.6,7.8,7.8,0,0,0-1,4H29V28.84H58v8.33Z"/></svg>