<svg id="Layer_1" data-name="Layer 1" xmlns="http://www.w3.org/2000/svg" viewBox="0 0 87.03 87.03"><defs><style>.cls-1{fill:#6d3142;}</style></defs><title>Friends Library Mark - </title><path class="cls-1" d="M43.52,0,0,43.52,43.52,87,87,43.52ZM56.71,31a1.89,1.89,0,0,0-1.05,1.3,12.39,12.39,0,0,0-.2,2.59V45.73a37.71,37.71,0,0,1-.2,4.49,8.37,8.37,0,0,1-1.1,3,8.62,8.62,0,0,1-4.6,4.08,15.92,15.92,0,0,1-5.68,1.12,17.29,17.29,0,0,1-4.14-.53,13,13,0,0,1-4-1.74A7.75,7.75,0,0,1,33,53a11,11,0,0,1-.8-2.17,10.78,10.78,0,0,1-.34-2.06c0-.64-.05-1.48-.05-2.52L31.74,34A3.9,3.9,0,0,0,31,31.34c-.5-.52-1.67-.78-3.5-.78v-2H42.3v2a7.94,7.94,0,0,0-2.81.38A2,2,0,0,0,38.28,32,5.58,5.58,0,0,0,38,34V46.25a26.42,26.42,0,0,0,.18,3.3A12,12,0,0,0,38.75,52a5.88,5.88,0,0,0,2.5,2.8,7.47,7.47,0,0,0,3.89,1.05,8.46,8.46,0,0,0,4.23-1.11,6.14,6.14,0,0,0,2.72-2.89A10.64,10.64,0,0,0,52.88,49a29.94,29.94,0,0,0,.18-3.54V34.91A18.06,18.06,0,0,0,53,32.79a2.56,2.56,0,0,0-.47-1.22,2.27,2.27,0,0,0-1.29-.77,10.08,10.08,0,0,0-2.48-.24v-2h10.8v2A6.25,6.25,0,0,0,56.71,31Z"/></svg>