<svg id="Layer_1" data-name="Layer 1" xmlns="http://www.w3.org/2000/svg" viewBox="0 0 612.74 357.15"><defs><style>.cls-1{fill:#fff;opacity:0.4;}</style></defs><title>Marks</title><path class="cls-1" d="M612.74,357.15h-78V339.22h19.46q11.68,0,16.62-2.33a11.33,11.33,0,0,0,6.37-7.6q1.41-5.27,1.42-16.76V45.2q0-11.3-1.12-16.46A11.15,11.15,0,0,0,571,21q-5.32-2.64-16.85-2.63H534.73V0h78Z"/><path class="cls-1" d="M0,0H78V17.93H58.55q-11.69,0-16.62,2.33a11.33,11.33,0,0,0-6.37,7.6q-1.41,5.27-1.42,16.76V312q0,11.3,1.12,16.46a11.15,11.15,0,0,0,6.44,7.79q5.32,2.64,16.85,2.63H78v18.32H0Z"/></svg>